# Blender v2.81 (sub 16) OBJ File: 'primitive_meshes.blend'
# www.blender.org
o Hideout_Cube.002
v 1.500000 -0.100000 0.500000
v 1.500000 0.100000 0.500000
v 1.500000 -0.100000 -0.500000
v 1.500000 0.100000 -0.500000
v 2.500000 -0.100000 0.500000
v 2.500000 0.100000 0.500000
v 2.500000 -0.100000 -0.500000
v 2.500000 0.100000 -0.500000
v 2.259808 0.100000 0.500000
v 2.259808 -0.100000 0.500000
v 1.740192 0.100000 0.500000
v 1.740192 -0.100000 0.500000
v 2.000000 0.100000 0.050000
v 2.000000 -0.100000 0.050000
vt 0.375000 0.000000
vt 0.625000 0.000000
vt 0.625000 0.250000
vt 0.375000 0.250000
vt 0.625000 0.500000
vt 0.375000 0.500000
vt 0.625000 0.750000
vt 0.375000 0.750000
vt 0.625000 0.810048
vt 0.375000 0.810048
vt 0.125000 0.500000
vt 0.314952 0.750000
vt 0.250000 0.637500
vt 0.185048 0.750000
vt 0.125000 0.750000
vt 0.875000 0.500000
vt 0.875000 0.750000
vt 0.814952 0.750000
vt 0.750000 0.637500
vt 0.685048 0.750000
vt 0.375000 0.939952
vt 0.625000 0.939952
vt 0.625000 1.000000
vt 0.375000 1.000000
vn -1.0000 0.0000 0.0000
vn 0.0000 0.0000 -1.0000
vn 1.0000 0.0000 0.0000
vn -0.0000 0.0000 1.0000
vn 0.0000 -1.0000 0.0000
vn 0.0000 1.0000 0.0000
vn -0.8660 0.0000 0.5000
vn 0.8660 0.0000 0.5000
s off
f 1/1/1 2/2/1 4/3/1 3/4/1
f 3/4/2 4/3/2 8/5/2 7/6/2
f 7/6/3 8/5/3 6/7/3 5/8/3
f 5/8/4 6/7/4 9/9/4 10/10/4
f 3/11/5 7/6/5 5/8/5 10/12/5 14/13/5 12/14/5 1/15/5
f 8/5/6 4/16/6 2/17/6 11/18/6 13/19/6 9/20/6 6/7/6
f 12/21/4 11/22/4 2/23/4 1/24/4
f 10/12/7 9/20/7 13/19/7 14/13/7
f 12/14/8 14/13/8 13/19/8 11/18/8
